<svg width="42" height="66" viewBox="0 0 42 66" fill="none" >
<path fill="#000" d="M41.4365 20.7189C41.4365 9.29497 32.1441 0 20.7201 0C9.29497 0 0 9.29372 0 20.7189C0 31.2388 7.88649 39.9319 18.0543 41.2442V53.8669H12.7937C11.3228 53.8669 10.1303 55.0593 10.1303 56.5302C10.1303 58.0011 11.3228 59.1936 12.7937 59.1936H18.0543V63.3366C18.0543 64.8075 19.2467 66 20.7201 66C22.1898 66 23.3823 64.8075 23.3823 63.3366V59.1936H28.6428C30.1175 59.1936 31.3099 58.0011 31.3099 56.5302C31.3099 55.0593 30.1175 53.8669 28.6428 53.8669H23.3823V41.2442C33.5513 39.9306 41.4365 31.2388 41.4365 20.7189ZM5.32925 20.7189C5.32925 12.2318 12.233 5.328 20.7201 5.328C29.2035 5.328 36.111 12.2318 36.111 20.7189C36.111 29.206 29.2047 36.1098 20.7201 36.1098C12.233 36.1098 5.32925 29.206 5.32925 20.7189Z" />
</svg>
