<svg width="64" height="66" viewBox="0 0 64 66" fill="none" >
<path fill="#000" d="M61.236 0H45.6052C44.078 0 42.841 1.23455 42.841 2.7574C42.841 4.28026 44.078 5.51531 45.6052 5.51531H52.8605L35.4237 22.9148C31.8878 20.756 27.7353 19.509 23.2961 19.509C10.4506 19.509 0 29.9365 0 42.7543C0 55.5732 10.4506 66 23.2961 66C36.1417 66 46.5921 55.5732 46.5921 42.7543C46.5921 37.211 44.6342 32.1178 41.3783 28.1185L58.4734 11.0606V19.3129C58.4734 20.8357 59.7106 22.0706 61.2358 22.0706C62.7628 22.0706 64 20.8357 64 19.3129V2.7574C64.0002 1.23455 62.763 0 61.236 0ZM23.2961 58.1212C14.8051 58.1212 7.89635 51.2274 7.89635 42.7542C7.89635 34.282 14.8041 27.3886 23.2961 27.3886C31.7872 27.3886 38.6944 34.282 38.6944 42.7542C38.6944 51.2274 31.7872 58.1212 23.2961 58.1212Z" />
</svg>
